<?xml version="1.0" encoding="UTF-8" standalone="no"?>
<svg
   width="500"
   height="275">
  <path
     class="cls-1"
     d="M 424.41,73.000185 A 247.69,247.69 0 0 1 497,248.50018 c 0,0.167 -0.006,0.333 -0.006,0.5 H 405 c 0,-42.254 -18.418,-80.4 -48,-107.512 V 73.000185 Z"
     style="fill:#bf1200;fill-opacity:1;fill-rule:evenodd"
     id="path2" />
  <path
     class="cls-2"
     d="M 357.847,142.27818 A 159.332,159.332 0 0 0 249,100.00018 c -86.156,0 -156,66.71 -156,149 H 0.006 c 0,-0.167 -0.006,-0.333 -0.006,-0.5 C 0,111.25718 111.257,1.8493299e-4 248.5,1.8493299e-4 A 247.726,247.726 0 0 1 425.494,74.093185 Z"
     style="fill:#f9d91b;fill-opacity:1;fill-rule:evenodd"
     id="path4" />
  <path
     class="cls-3"
     d="m 249,100.00018 c -86.156,0 -156,66.71 -156,149 H 0.006 c 0,-0.167 -0.006,-0.333 -0.006,-0.5 C 0,111.25718 111.257,1.8493299e-4 248.5,1.8493299e-4 c 0.167,0 0.333,0.005999997 0.5,0.005999997 z"
     style="fill:#6db911;fill-opacity:1;fill-rule:evenodd"
     id="path6" />
  <path
     class="cls-4"
     d="m 228.2,270.45118 16.72,-50.4 -47.127,24.473 193.4,-196.008995 z"
     style="fill:#000000;fill-opacity:1;fill-rule:evenodd"
     id="path8" />
</svg>
